<svg version="1.1" viewBox="0.0 0.0 128.0 128.0" fill="none" stroke="none" stroke-linecap="square" stroke-miterlimit="10" xmlns:xlink="http://www.w3.org/1999/xlink" xmlns="http://www.w3.org/2000/svg"><clipPath id="p.0"><path d="m0 0l128.0 0l0 128.0l-128.0 0l0 -128.0z" clip-rule="nonzero"/></clipPath><g clip-path="url(#p.0)"><path fill="#000000" fill-opacity="0.0" d="m0 0l128.0 0l0 128.0l-128.0 0z" fill-rule="evenodd"/><path fill="#efefef" d="m0.17060368 8.11904l0 0c0 -4.484021 3.6350179 -8.11904 8.11904 -8.11904l111.761925 0c2.1532974 0 4.2184067 0.8553964 5.741028 2.3780117c1.5226135 1.5226154 2.3780136 3.5877252 2.3780136 5.741028l0 111.76192c0 4.484024 -3.635025 8.119041 -8.119041 8.119041l-111.761925 0l0 0c-4.4840217 0 -8.11904 -3.6350174 -8.11904 -8.119041z" fill-rule="evenodd"/><path fill="#ffe599" d="m30.028872 64.0l0 0c0 -18.855957 15.285772 -34.14173 34.14173 -34.14173l0 0c9.054955 0 17.739037 3.5970669 24.141853 9.999884c6.402817 6.402817 9.999878 15.086899 9.999878 24.14185l0 0c0 18.855957 -15.285767 34.14173 -34.14173 34.14173l0 0c-18.855957 0 -34.14173 -15.285774 -34.14173 -34.14173z" fill-rule="evenodd"/><path stroke="#000000" stroke-width="4.0" stroke-linejoin="round" stroke-linecap="butt" d="m30.028872 64.0l0 0c0 -18.855957 15.285772 -34.14173 34.14173 -34.14173l0 0c9.054955 0 17.739037 3.5970669 24.141853 9.999884c6.402817 6.402817 9.999878 15.086899 9.999878 24.14185l0 0c0 18.855957 -15.285767 34.14173 -34.14173 34.14173l0 0c-18.855957 0 -34.14173 -15.285774 -34.14173 -34.14173z" fill-rule="evenodd"/><path fill="#000000" d="m108.31435 61.262493l10.797173 0l0 0c1.4144516 0 2.5610962 1.2246933 2.5610962 2.7354317c0 1.5107346 -1.1466446 2.7354355 -2.5610962 2.7354355l-10.797173 0l0 0c-1.4144516 0 -2.5610962 -1.2247009 -2.5610962 -2.7354355c0 -1.5107384 1.1466446 -2.7354317 2.5610962 -2.7354317z" fill-rule="evenodd"/><path fill="#000000" d="m9.23036 61.265118l10.797165 0l0 0c1.4144592 0 2.5611038 1.2246933 2.5611038 2.7354317c0 1.5107422 -1.1466446 2.7354355 -2.5611038 2.7354355l-10.797165 0l0 0c-1.4144573 0 -2.561102 -1.2246933 -2.561102 -2.7354355c0 -1.5107384 1.1466446 -2.7354317 2.561102 -2.7354317z" fill-rule="evenodd"/><path fill="#000000" d="m61.435062 19.858795l0 -10.797166l0 0c0 -1.4144573 1.2246971 -2.561102 2.7354317 -2.561102c1.5107422 0 2.7354355 1.1466446 2.7354355 2.561102l0 10.797166l0 0c0 1.4144573 -1.2246933 2.561102 -2.7354355 2.561102c-1.5107346 0 -2.7354317 -1.1466446 -2.7354317 -2.561102z" fill-rule="evenodd"/><path fill="#000000" d="m61.264458 118.93754l0 -10.797165l0 0c0 -1.4144592 1.2246971 -2.5611038 2.7354355 -2.5611038c1.5107346 0 2.7354355 1.1466446 2.7354355 2.5611038l0 10.797165l0 0c0 1.4144516 -1.2247009 2.5610962 -2.7354355 2.5610962c-1.5107384 0 -2.7354355 -1.1466446 -2.7354355 -2.5610962z" fill-rule="evenodd"/><path fill="#000000" d="m84.101494 23.901493l5.6062164 -9.228347l0 0c0.7344284 -1.2089376 2.3768234 -1.5531502 3.6683884 -0.76881886c1.291565 0.7843313 1.7432098 2.400196 1.0087738 3.6091347l-5.6062164 9.228346l0 0c-0.7344284 1.2089386 -2.3768234 1.5531502 -3.6683884 0.7688198c-1.291565 -0.7843323 -1.7432098 -2.400196 -1.0087738 -3.6091347z" fill-rule="evenodd"/><path fill="#000000" d="m34.390205 109.56029l5.6062202 -9.228348l0 0c0.7344284 -1.2089386 2.3768196 -1.553154 3.6683846 -0.7688217c1.291565 0.7843323 1.7432098 2.4002 1.0087814 3.6091385l-5.606224 9.228348l0 0c-0.7344284 1.2089386 -2.3768196 1.5531464 -3.6683846 0.7688141c-1.291565 -0.7843323 -1.7432098 -2.4001923 -1.0087776 -3.6091309z" fill-rule="evenodd"/><path fill="#000000" d="m88.87619 101.27801l5.4562607 9.320633l0 0c0.7147827 1.2210236 0.23705292 2.8301926 -1.0670319 3.5941696c-1.3040848 0.7639847 -2.9407043 0.39347076 -3.6554947 -0.8275604l-5.456253 -9.320625l0 0c-0.71479034 -1.2210312 -0.23706055 -2.8301926 1.0670242 -3.5941772c1.3040848 -0.76397705 2.9407043 -0.39346313 3.6554947 0.8275604z" fill-rule="evenodd"/><path fill="#000000" d="m103.23972 83.814125l9.393692 5.3293686l0 0c1.2305984 0.6981659 1.6240997 2.3301926 0.87890625 3.6452408c-0.7451935 1.3150482 -2.3468933 1.8151321 -3.5774918 1.1169662l-9.393684 -5.3293686l0 0c-1.2305984 -0.6981659 -1.6240997 -2.3301926 -0.87890625 -3.6452408c0.7451935 -1.3150406 2.3468857 -1.8151245 3.5774841 -1.1169662z" fill-rule="evenodd"/><path fill="#000000" d="m18.407705 34.27607l9.393688 5.3293686l0 0c1.2305984 0.6981621 1.6240978 2.3301888 0.87890434 3.645237c-0.7451935 1.3150482 -2.3468895 1.8151283 -3.577488 1.1169701l-9.393687 -5.3293724l0 0c-1.2305984 -0.6981621 -1.6240969 -2.3301888 -0.87890434 -3.645237c0.7451935 -1.3150444 2.3468885 -1.8151283 3.577487 -1.1169662z" fill-rule="evenodd"/><path fill="#000000" d="m39.17633 14.653713l5.1678734 9.482126l0 0c0.67700577 1.2421837 0.15088654 2.836773 -1.1751175 3.561613c-1.3260078 0.7248421 -2.949768 0.30545235 -3.6267738 -0.93673134l-5.1678734 -9.482126l0 0c-0.67700577 -1.2421837 -0.15088654 -2.836773 1.1751175 -3.561614c1.3260078 -0.7248411 2.949768 -0.30545235 3.6267738 0.9367323z" fill-rule="evenodd"/><path fill="#000000" d="m100.539986 39.42619l9.401375 -5.3101425l0 0c1.2316055 -0.6956444 2.8328476 -0.19478989 3.576477 1.1186943c0.74362946 1.3134804 0.34804535 2.942196 -0.8835602 3.6378403l-9.401382 5.3101425l0 0c-1.2316055 0.6956444 -2.8328476 0.19478989 -3.5764694 -1.1186943c-0.74362946 -1.3134804 -0.34804535 -2.942196 0.8835602 -3.6378403z" fill-rule="evenodd"/><path fill="#000000" d="m14.891691 88.938l9.401379 -5.31015l0 0c1.2316055 -0.69564056 2.8328476 -0.19478607 3.5764751 1.1186981c0.74362755 1.3134842 0.34804344 2.9421997 -0.8835621 3.6378403l-9.401379 5.3101425l0 0c-1.2316055 0.6956482 -2.8328485 0.19478607 -3.576476 -1.1186905c-0.74362755 -1.3134842 -0.3480425 -2.9421997 0.88356304 -3.6378403z" fill-rule="evenodd"/></g></svg>