<?xml version="1.0" encoding="utf-8"?>

<!DOCTYPE svg PUBLIC "-//W3C//DTD SVG 1.1//EN" "http://www.w3.org/Graphics/SVG/1.1/DTD/svg11.dtd">
<svg version="1.1" id="Layer_1" xmlns="http://www.w3.org/2000/svg" xmlns:xlink="http://www.w3.org/1999/xlink" x="0px" y="0px"
	 viewBox="0 0 801.285 1697.097" enable-background="new 0 0 801.285 1697.097" xml:space="preserve">
<path d="M253.286,1648.548h214.741v-114.198c0-29.691,31.68-43.146,48.044-45.22c0,0,0,0,0,0
	c76.433-16.985,177.98-156.506,142.675-298.453c-29.643-119.184-122.698-189.311-268.608-216.924
	c-79.91-15.123-121.88-38.145-123.749-74.977c-2.324-45.804,60.561-61.547,117.925-78.617
	c144.267-42.93,181.62-225.66,164.513-348.681l144.773,42.401c41.682,12.208,68.557-33.641,42.306-68.242L442.549,48.548
	L147.663,445.425c-27.912,37.565,7.225,80.474,51.392,64.998l140.855-40.4c0,0,1.26,91.021-1.456,121.201
	c-2.056,22.843-20.144,43.136-49.682,49.682C130.265,676.028,59.655,765.928,55.288,882.397
	c-5.889,157.034,71.338,231.119,278.435,291.174c22.945,6.654,47.981,14.584,76.069,21.474c30.355,7.446,45.666,28.313,43.676,61.51
	c0.118,28.952-24.882,43.403-58.235,58.235c-62.853,27.951-113.679,83.326-133.94,163.057
	C248.459,1528.352,251.091,1586.754,253.286,1648.548z"/>
</svg>
